# xmcd
#
# Track frame offsets:
#	150
#	10705
#	20132
#	33617
#	47710
#	57267
#	68755
#	84885
#	95547
#	106285
#	117620
#	130807
#	141637
#	151840
#
# Disc length: 2272 seconds
#
# Revision: 0
# Processed by: cddbd v1.5.1PL0 Copyright (c) Steve Scherf et al.
# Submitted via: dBpowerAMP V4.0
#
DISCID=bd08de0e
DTITLE=Larry Wallace - Sunny Mountain Banjo
DYEAR=1995
DGENRE=Country
TTITLE0=Sweet Little Maggie
TTITLE1=Sunny Side Of The Mountain
TTITLE2=Cumberland Gap
TTITLE3=Big Country
TTITLE4=Fire On The Mountain
TTITLE5=Pike County Breakdown
TTITLE6=Arab Bounce
TTITLE7=Foggy Mountain Breakdown
TTITLE8=Theme Time
TTITLE9=Sally Goodin'
TTITLE10=Train 45
TTITLE11=Goin' Up Cripple Creek
TTITLE12=Lost Wild Indian
TTITLE13=I Saw The Light
EXTD=
EXTT0=
EXTT1=
EXTT2=
EXTT3=
EXTT4=
EXTT5=
EXTT6=
EXTT7=
EXTT8=
EXTT9=
EXTT10=
EXTT11=
EXTT12=
EXTT13=
PLAYORDER=
